<svg xmlns="http://www.w3.org/2000/svg" xmlns:xlink="http://www.w3.org/1999/xlink" width="250.5" height="24.602" viewBox="0 0 250.5 24.602"><defs><style>.a,.i,.p{fill:#fff;}.b{fill:#f4811f;}.b,.d,.e,.i,.j,.k,.l,.m,.n,.o,.q,.r,.s,.t{fill-rule:evenodd;}.c{fill:none;}.c,.p{stroke:#979797;stroke-width:0.5px;}.d{fill:#001722;}.e{fill:#231f20;}.f{fill:#f58220;}.g{fill:url(#a);}.h{fill:url(#b);}.j{fill:#2584ba;}.k{fill:#7673c0;}.l{fill:#eb001b;}.m{fill:#00a1df;}.n{fill:#ff5f00;}.o{fill:#f79e1b;}.q{fill:#16216a;}.r{fill:#d80029;}.s{fill:#0e2e62;}.t{fill:#0c606c;}</style><radialGradient id="a" cx="0" cy="0" r="1.84" gradientTransform="matrix(0.544, 0.544, -0.566, 1.348, 0, 0)" gradientUnits="objectBoundingBox"><stop offset="0" stop-color="#fff"/><stop offset="1" stop-color="#f3f3f3"/></radialGradient><radialGradient id="b" cx="0.21" cy="0.165" r="0.896" gradientTransform="matrix(0.429, 0.749, -0.53, 0.724, 0.208, -0.112)" gradientUnits="objectBoundingBox"><stop offset="0" stop-color="#65bcf2"/><stop offset="1" stop-color="#004fc5"/></radialGradient></defs><g transform="translate(-1.156 1.102)"><g transform="translate(1.406 -1.102)"><g transform="translate(0 0)"><g transform="translate(170.394 0.392)"><rect class="a" width="37.383" height="24.21" rx="11.25"/><g transform="translate(9.261 13.114)"><path class="b" d="M27.537,0S17.812,6.969,0,10.088H27.537Z"/></g><rect class="c" width="36.382" height="23.209" rx="2" transform="translate(0.501 0.501)"/><g transform="translate(3.47 7.371)"><g transform="translate(0 0)"><path class="d" d="M3.655,4.035H2.246V9.268h1.4a2.462,2.462,0,0,0,1.754-.6,2.7,2.7,0,0,0,.892-2.011A2.513,2.513,0,0,0,3.655,4.035ZM4.776,7.966a1.747,1.747,0,0,1-1.314.416H3.205V4.919h.258a1.713,1.713,0,0,1,1.314.424,1.819,1.819,0,0,1,.529,1.3,1.85,1.85,0,0,1-.529,1.319Z" transform="translate(-2.246 -3.916)"/><path class="d" d="M14.856,4.035h.958V9.268h-.958Z" transform="translate(-10.366 -3.916)"/><path class="d" d="M20.547,5.882c-.576-.227-.746-.377-.746-.658a.642.642,0,0,1,.716-.582.977.977,0,0,1,.774.422l.5-.7a2.068,2.068,0,0,0-1.445-.582,1.485,1.485,0,0,0-1.533,1.5c0,.723.31,1.092,1.209,1.439a3.567,3.567,0,0,1,.664.3.638.638,0,0,1,.288.541.723.723,0,0,1-.747.739,1.131,1.131,0,0,1-1.046-.7l-.618.636a1.885,1.885,0,0,0,1.7,1,1.635,1.635,0,0,0,1.695-1.719c0-.833-.323-1.209-1.414-1.634" transform="translate(-12.755 -3.757)"/><path class="d" d="M28.956,6.44a2.63,2.63,0,0,0,2.595,2.732,2.516,2.516,0,0,0,1.2-.305v-1.2a1.5,1.5,0,0,1-1.158.572,1.664,1.664,0,0,1-1.65-1.806,1.7,1.7,0,0,1,1.608-1.8,1.56,1.56,0,0,1,1.2.589v-1.2a2.325,2.325,0,0,0-1.178-.32A2.669,2.669,0,0,0,28.956,6.44" transform="translate(-19.447 -3.703)"/><path class="d" d="M57.175,7.55,55.863,4.035H54.817L56.9,9.4h.515l2.123-5.367H58.5L57.175,7.55" transform="translate(-36.1 -3.916)"/><path class="d" d="M69.311,9.268h2.72V8.382H70.269V6.969h1.695V6.082H70.269V4.919h1.762V4.035h-2.72V9.268" transform="translate(-45.434 -3.916)"/><path class="d" d="M81.891,5.578c0-.98-.633-1.544-1.739-1.544H78.729V9.268h.959v-2.1h.125l1.326,2.1h1.179l-1.549-2.2a1.374,1.374,0,0,0,1.121-1.484Zm-1.924.865h-.279V4.857h.295c.6,0,.923.268.923.777,0,.525-.325.81-.939.81Z" transform="translate(-51.498 -3.916)"/><path class="e" d="M88.981,4.881c0-.1-.061-.151-.173-.151H88.66v.489h.109V5.029l.128.189h.137l-.153-.2a.133.133,0,0,0,.1-.136Zm-.193.065h-.019V4.818h.022c.054,0,.08.023.08.064s-.028.064-.083.064Z" transform="translate(-57.894 -4.364)"/><path class="e" d="M88.426,4.241a.4.4,0,1,0,.373.4.391.391,0,0,0-.373-.4Zm0,.734a.332.332,0,1,1,.3-.329.316.316,0,0,1-.3.329Z" transform="translate(-57.5 -4.05)"/></g><path class="f" d="M43.262,3.753a2.658,2.658,0,0,0-2.622,2.69,2.622,2.622,0,1,0,5.237.031,2.642,2.642,0,0,0-2.615-2.722" transform="translate(-26.97 -3.735)"/></g></g><g transform="translate(126.669)"><rect class="g" width="37.383" height="24.21" rx="5.473" transform="translate(1.001 0.392)"/><g transform="translate(0)"><path class="h" d="M0,0V24.21H37.383V0Z" transform="translate(1.001 0)"/><g transform="translate(0 5.38)"><g transform="translate(0 0)"><path class="i" d="M9.76,6.039h.529l.151-.347v.347h8.608V4.449h.388c0,.042,0,.083,0,.116v.091l.01,1.381h4.346V5.567a3.243,3.243,0,0,0,1.725.472H27.27l.384-.976H28.7l.4.976h3.447V4.908l.671,1.131h2.728V0H33.264V.9L32.733,0H29.894V.92L29.508,0H25.592a3.069,3.069,0,0,0-1.8.48V0H21.117V.275A3.269,3.269,0,0,0,19.572,0H10.056L9.33,1.748,8.54,0H5.526V.937L5.132,0h-2.6L0,6.039H2.893l.4-.976H4.338l.393.976H8.178V5.69l.153.349ZM23.792,1.673a1.827,1.827,0,0,1,.241-.33A2.055,2.055,0,0,1,25.592.83h.992v.938h-.97a.988.988,0,0,0-.794.26,1.486,1.486,0,0,0-.293.993,1.515,1.515,0,0,0,.284,1.028.975.975,0,0,0,.713.225h.462L27.432.83h1.539l1.737,4.142V.83h1.566l1.8,3.049V.83h1.05V5.21H33.673L31.727,1.926l0,3.284H29.638l-.4-.977H27.1l-.384.977h-1.2a2.136,2.136,0,0,1-1.488-.482,2.225,2.225,0,0,1-.549-1.675,2.667,2.667,0,0,1,.312-1.38ZM21.931,3.349V.83h1.047V5.21H21.931V3.349ZM17.21.83h2.362a2.384,2.384,0,0,1,1.242.212,1.023,1.023,0,0,1,.52.971,1.265,1.265,0,0,1-.218.721,1.21,1.21,0,0,1-.5.445,1.149,1.149,0,0,1,.5.369,1.261,1.261,0,0,1,.173.8V5.21H20.254l0-.552a1.3,1.3,0,0,0-.165-.85c-.15-.156-.375-.189-.746-.189h-1.1V5.21H17.21V.83Zm-4.141,0H16.5v.915H14.1v.786h2.342v.9l-2.342,0V4.3h2.4V5.21H13.069V.83Zm-5.705.946V5.21H5.277l-.393-.977H2.745l-.4.977H1.233L3.069.83H4.6L6.34,4.978V.83H8.019L9.36,3.8,10.6.83H12.3V5.21H11.254l-.006-3.426L9.76,5.21h-.9l-1.5-3.433Z" transform="translate(0 0)"/><path class="i" d="M8.412,5.964H9.828l-.71-1.647L8.412,5.964" transform="translate(-5.417 -2.78)"/><path class="i" d="M53.19,5.42a.4.4,0,0,0,.217-.378.36.36,0,0,0-.218-.348,1.232,1.232,0,0,0-.5-.068H51.392V5.5H52.67a1.128,1.128,0,0,0,.52-.08" transform="translate(-33.095 -2.979)"/><path class="i" d="M77.792,4.317l-.7,1.647H78.5l-.713-1.647" transform="translate(-49.643 -2.78)"/><path class="i" d="M45.117,27.931V24.363l-1.525,1.754,1.525,1.814" transform="translate(-28.072 -15.689)"/><path class="i" d="M51.694,25.442H50.322V26.65h1.362a.581.581,0,0,0,.653-.625c0-.417-.263-.582-.643-.582" transform="translate(-32.406 -16.384)"/><path class="i" d="M29.367,25.442v.766h2.225v.862H29.367v.842h2.491l1.157-1.24-1.109-1.231h-2.54" transform="translate(-18.912 -16.384)"/><path class="i" d="M53.96,23.407h.116V20.816H51.214a2.453,2.453,0,0,0-1.194.288v-.288H47.16a2.491,2.491,0,0,0-1.141.258v-.258H40.985v.267a3.316,3.316,0,0,0-1.512-.267H36.3V21.1a3.093,3.093,0,0,0-1.393-.284H31.291l-.936,1.032-.9-1.032H24.167v6.039H29.38l.241-.267.7-.777.907,1.043h3.158V25.386h.465a3.192,3.192,0,0,0,1.452-.3v1.768H38.95v-1.6h.284l.1,0c0,.048,0,.1,0,.133v1.466h8.472a2.952,2.952,0,0,0,1.251-.256v.256h2.8a2.132,2.132,0,0,0,2.415-2.213,2.191,2.191,0,0,0-.321-1.234ZM36.036,24.3c-.03.018-.065.032-.1.048a1.623,1.623,0,0,1-.226.093l-.119.033a2.269,2.269,0,0,1-.255.048c-.037.005-.073.012-.111.017-.124.011-.249.019-.376.019H33.576v1.469H31.592l-1.259-1.448-1.308,1.448H24.977V21.646h4.112l1.256,1.433,1.3-1.433h3.266c.114,0,.232.006.349.018.034,0,.067.009.1.015a2.441,2.441,0,0,1,.248.047c.037.009.073.02.109.031a1.52,1.52,0,0,1,.232.1.8.8,0,0,1,.084.041,1.14,1.14,0,0,1,.27.212,1.388,1.388,0,0,1,.328.985,1.284,1.284,0,0,1-.6,1.209ZM41,24.358a1.286,1.286,0,0,1,.17.8v.866H40.149v-.549a1.316,1.316,0,0,0-.166-.855c-.149-.161-.377-.2-.749-.2H38.14v1.6H37.115V21.646h2.358a2.428,2.428,0,0,1,1.231.21,1.173,1.173,0,0,1,.281.244,1.067,1.067,0,0,1,.242.728,1.221,1.221,0,0,1-.724,1.162,1.177,1.177,0,0,1,.291.161.887.887,0,0,1,.21.208ZM45.209,21.8v.749H42.815v.793h2.334v.893H42.815v.872l2.394,0v.909H41.8V21.646h3.413V21.8Zm3.853,3.8h0a1.071,1.071,0,0,1-.19.152,1.393,1.393,0,0,1-.327.165c-.05.016-.105.026-.159.038a2.4,2.4,0,0,1-.574.069H45.818v-.94H47.8a.582.582,0,0,0,.417-.109.381.381,0,0,0,.122-.284.367.367,0,0,0-.127-.289.52.52,0,0,0-.363-.1l-.485-.017-.059,0a2.627,2.627,0,0,1-.979-.2h0a1.062,1.062,0,0,1-.369-.284,1.3,1.3,0,0,1-.26-.854,1.238,1.238,0,0,1,.517-1.048s0,0,0,0a1.341,1.341,0,0,1,.229-.121l.026-.013a1.651,1.651,0,0,1,.258-.073c.019,0,.035-.01.055-.015a2.2,2.2,0,0,1,.374-.03h2.05v.931H47.335a.693.693,0,0,0-.411.079.345.345,0,0,0-.152.317.336.336,0,0,0,.223.325,1.187,1.187,0,0,0,.4.051l.552.015c.13,0,.248.012.358.026a2.373,2.373,0,0,1,.275.052l.019,0a1.058,1.058,0,0,1,.514.269,1.231,1.231,0,0,1,.307.927,1.3,1.3,0,0,1-.354.958Zm2.8.425H49.872v-.94h1.985a.583.583,0,0,0,.417-.109.38.38,0,0,0,.121-.284.366.366,0,0,0-.126-.289.52.52,0,0,0-.363-.1l-.456-.016-.04,0c-.157-.007-.311-.021-.462-.041h-.007a1.179,1.179,0,0,1-1.188-1.3,1.31,1.31,0,0,1,.266-.806,1.182,1.182,0,0,1,.188-.19l.016-.013a1.176,1.176,0,0,1,.222-.133c.016-.008.03-.018.047-.025a1.471,1.471,0,0,1,.254-.079c.026-.006.049-.016.076-.021a2.15,2.15,0,0,1,.39-.035h2.051v.931H51.39a.693.693,0,0,0-.411.079.345.345,0,0,0-.152.317.335.335,0,0,0,.223.325,1.187,1.187,0,0,0,.4.051l.552.015a1.634,1.634,0,0,1,1.165.351,1.235,1.235,0,0,1,.307.927c0,.944-.576,1.384-1.6,1.384Z" transform="translate(-15.563 -13.405)"/><path class="i" d="M65.426,25.511a1.154,1.154,0,0,0-.5-.069h-1.3v.884h1.28a1.125,1.125,0,0,0,.517-.08.418.418,0,0,0,.218-.379.372.372,0,0,0-.218-.356" transform="translate(-40.975 -16.384)"/><path class="j" d="M57.969,7.648a1.1,1.1,0,0,0,.459-.4,1.1,1.1,0,0,1-.459.4" transform="translate(-37.331 -4.667)"/><path class="j" d="M54.489,30.839c-.113.01-.228.017-.343.017.116,0,.231-.007.343-.017" transform="translate(-34.868 -19.859)"/><path class="j" d="M54.3,23.129c.1,0,.212.006.318.016-.106-.01-.214-.016-.318-.016" transform="translate(-34.967 -14.895)"/><path class="j" d="M56.061,30.839a2.1,2.1,0,0,1-.233.043,2.1,2.1,0,0,0,.233-.043" transform="translate(-35.952 -19.859)"/><path class="j" d="M56.8,30.531a1.5,1.5,0,0,1-.206.084,1.5,1.5,0,0,0,.206-.084" transform="translate(-36.444 -19.661)"/><path class="j" d="M56.593,23.129a1.461,1.461,0,0,1,.212.086,1.4,1.4,0,0,0-.212-.086" transform="translate(-36.444 -14.895)"/><path class="j" d="M55.828,23.129a2.263,2.263,0,0,1,.227.042,2.263,2.263,0,0,0-.227-.042" transform="translate(-35.952 -14.895)"/><path class="j" d="M57.664,23.592a1.02,1.02,0,0,1,.246.19,1.039,1.039,0,0,0-.246-.19" transform="translate(-37.134 -15.192)"/><path class="j" d="M93.629,33.769a1.154,1.154,0,0,1-.174.137.976.976,0,0,0,.174-.137" transform="translate(-60.182 -21.746)"/><path class="j" d="M87.642,23.156a2.038,2.038,0,0,1,.342-.027,2.038,2.038,0,0,0-.342.027" transform="translate(-56.439 -14.895)"/><path class="j" d="M92.529,34.694c-.044.015-.1.022-.145.035.049-.011.1-.021.145-.035" transform="translate(-59.492 -22.342)"/><path class="j" d="M85.96,23.7a1.2,1.2,0,0,1,.209-.109,1.232,1.232,0,0,0-.209.109" transform="translate(-55.356 -15.192)"/><path class="j" d="M89.768,30.237c-.143,0-.293-.008-.443-.015l.443.015" transform="translate(-57.523 -19.462)"/><path class="j" d="M87.619,29.938a2.448,2.448,0,0,1-.894-.178,2.433,2.433,0,0,0,.894.178" transform="translate(-55.848 -19.164)"/><path class="j" d="M87.031,23.195a1.527,1.527,0,0,1,.236-.065,1.527,1.527,0,0,0-.236.065" transform="translate(-56.045 -14.895)"/><path class="j" d="M91.925,27.755a2.01,2.01,0,0,1,.251.047,2.2,2.2,0,0,0-.251-.047" transform="translate(-59.197 -17.873)"/><path class="j" d="M85.685,29.09a.98.98,0,0,1-.337-.256.969.969,0,0,0,.337.256" transform="translate(-54.962 -18.569)"/><path class="j" d="M101.672,30.236c-.135,0-.276-.007-.417-.014l.417.014" transform="translate(-65.205 -19.462)"/><path class="j" d="M97.584,23.711a1.077,1.077,0,0,1,.2-.119,1.077,1.077,0,0,0-.2.119" transform="translate(-62.841 -15.192)"/><path class="j" d="M99.114,23.161a1.9,1.9,0,0,1,.356-.032,1.994,1.994,0,0,0-.356.032" transform="translate(-63.826 -14.895)"/><path class="j" d="M97.278,24.071a1.071,1.071,0,0,1,.172-.171,1.071,1.071,0,0,0-.172.171" transform="translate(-62.644 -15.391)"/><path class="j" d="M99.995,30.26c-.143-.007-.285-.018-.422-.037.138.019.279.031.422.037" transform="translate(-64.122 -19.462)"/><path class="j" d="M98.2,23.2a1.478,1.478,0,0,1,.232-.071,1.359,1.359,0,0,0-.232.071" transform="translate(-63.235 -14.895)"/><path class="j" d="M70.818,23.592a1.067,1.067,0,0,1,.256.219,1.067,1.067,0,0,0-.256-.219" transform="translate(-45.604 -15.192)"/></g></g></g></g><g transform="translate(84.947 0.392)"><rect width="37.383" height="24.21" rx="2"/><g transform="translate(6.205 2.114)"><g transform="translate(0 0)"><path class="i" d="M26.448,48.417a.937.937,0,0,1,.318.057l-.137.429a.715.715,0,0,0-.279-.053c-.292,0-.438.193-.438.539v1.174h-.447V48.469h.442v.254A.6.6,0,0,1,26.448,48.417Zm-1.545.469h-.73v.946c0,.21.073.35.3.35a.813.813,0,0,0,.395-.118l.129.39a1.034,1.034,0,0,1-.558.162c-.528,0-.713-.289-.713-.775v-.955h-.416v-.416h.416v-.635h.451v.635h.73ZM22.758,49a1.3,1.3,0,0,0-.64-.18c-.245,0-.391.092-.391.245s.155.18.348.206l.21.031c.447.066.717.259.717.626,0,.4-.344.683-.936.683a1.461,1.461,0,0,1-.889-.272l.21-.355a1.079,1.079,0,0,0,.683.219c.3,0,.468-.092.468-.254,0-.118-.116-.184-.361-.219l-.21-.031c-.459-.066-.708-.276-.708-.618,0-.416.335-.67.854-.67a1.511,1.511,0,0,1,.837.219Zm-3.409.328h1.065a.514.514,0,0,0-.52-.508A.532.532,0,0,0,19.349,49.332Zm1.528.184c0,.061,0,.118-.009.175H19.345a.573.573,0,0,0,.614.512.966.966,0,0,0,.6-.219l.219.337a1.232,1.232,0,0,1-.841.293,1.1,1.1,0,0,1-.03-2.2A1,1,0,0,1,20.877,49.516ZM28,48.845a.656.656,0,0,0-.255.049.6.6,0,0,0-.2.138.641.641,0,0,0-.135.212.774.774,0,0,0,0,.544.639.639,0,0,0,.135.212.6.6,0,0,0,.2.138.686.686,0,0,0,.51,0,.614.614,0,0,0,.2-.138.635.635,0,0,0,.136-.212.777.777,0,0,0,0-.544.637.637,0,0,0-.136-.212.618.618,0,0,0-.2-.138A.657.657,0,0,0,28,48.845Zm0-.431a1.136,1.136,0,0,1,.44.084,1.076,1.076,0,0,1,.35.232,1.063,1.063,0,0,1,.231.349,1.185,1.185,0,0,1,0,.875,1.063,1.063,0,0,1-.231.349,1.076,1.076,0,0,1-.35.232,1.194,1.194,0,0,1-.881,0,1.063,1.063,0,0,1-.349-.232,1.074,1.074,0,0,1-.23-.349,1.185,1.185,0,0,1,0-.875,1.074,1.074,0,0,1,.23-.349,1.063,1.063,0,0,1,.349-.232A1.136,1.136,0,0,1,28,48.414Zm-11.216,1.1a.622.622,0,1,0,.623-.67A.623.623,0,0,0,16.786,49.516Zm1.662,0v1.047H18v-.254a.773.773,0,0,1-.648.307,1.1,1.1,0,0,1,0-2.2.773.773,0,0,1,.648.307v-.254h.447Zm-2.516,1.047V49.249a.772.772,0,0,0-.807-.832.79.79,0,0,0-.721.372.75.75,0,0,0-.678-.372.675.675,0,0,0-.6.311v-.258h-.447v2.093h.451V49.4c0-.364.2-.556.5-.556s.447.2.447.552v1.165h.451V49.4a.489.489,0,0,1,.5-.556c.3,0,.451.2.451.552v1.165Z" transform="translate(-8.361 -30.804)"/><path class="k" d="M26.213,17.155h6.772V4.742H26.213Z" transform="translate(-17.077 -3.054)"/><path class="l" d="M10.119,7.9a7.939,7.939,0,0,1,2.956-6.207A7.61,7.61,0,0,0,8.292,0,7.818,7.818,0,0,0,.554,7.9,7.818,7.818,0,0,0,8.292,15.79,7.61,7.61,0,0,0,13.075,14.1,7.939,7.939,0,0,1,10.119,7.9" transform="translate(-0.554 -0.001)"/><path class="m" d="M48.244,7.9a7.818,7.818,0,0,1-7.738,7.895A7.609,7.609,0,0,1,35.723,14.1a7.994,7.994,0,0,0,0-12.413A7.609,7.609,0,0,1,40.506,0,7.818,7.818,0,0,1,48.244,7.9" transform="translate(-23.202 -0.001)"/></g></g></g><g transform="translate(42.223 0.392)"><rect width="37.383" height="24.21" rx="2"/><g transform="translate(6.075 2.017)"><g transform="translate(1.298 17.002)"><path class="i" d="M20.924,1.958a.657.657,0,0,1,.642-.719.65.65,0,0,1,.629.719.65.65,0,0,1-.629.719.657.657,0,0,1-.642-.719Zm1.668,0V.045h-.414v1.11A.807.807,0,0,0,21.51.844a1.04,1.04,0,0,0-1.018,1.114A1.04,1.04,0,0,0,21.51,3.073a.807.807,0,0,0,.668-.311v.258h.414Zm-5.829,0a.657.657,0,0,1,.642-.719.65.65,0,0,1,.63.719.65.65,0,0,1-.63.719.657.657,0,0,1-.642-.719Zm1.668,0V.9h-.414v.258A.807.807,0,0,0,17.35.844a1.04,1.04,0,0,0-1.018,1.114A1.04,1.04,0,0,0,17.35,3.073a.807.807,0,0,0,.668-.311v.258h.414Zm4.872.9v.052h.047a.045.045,0,0,0,.026-.007.025.025,0,0,0,0-.039.046.046,0,0,0-.026-.006Zm.047-.037a.084.084,0,0,1,.056.017.057.057,0,0,1,.02.046.054.054,0,0,1-.016.04.074.074,0,0,1-.045.019l.062.074H23.38l-.058-.073H23.3v.073h-.04v-.2Zm-.012.263a.148.148,0,0,0,.062-.013.162.162,0,0,0,.084-.087.168.168,0,0,0-.034-.18.156.156,0,0,0-.05-.035.148.148,0,0,0-.062-.013.153.153,0,0,0-.063.013.156.156,0,0,0-.051.035.169.169,0,0,0,0,.232.164.164,0,0,0,.051.035.153.153,0,0,0,.063.013Zm0-.375a.2.2,0,0,1,.081.016.209.209,0,0,1,.111.112.212.212,0,0,1,0,.163.212.212,0,0,1-.111.112.2.2,0,0,1-.081.017.2.2,0,0,1-.082-.017.205.205,0,0,1-.066-.045A.212.212,0,0,1,23.146,3a.215.215,0,0,1,0-.163.212.212,0,0,1,.045-.067.2.2,0,0,1,.066-.045.209.209,0,0,1,.082-.016ZM20.019.844a.633.633,0,0,0-.56.311V.9h-.41V3.019h.414V1.825c0-.351.164-.577.457-.577a.713.713,0,0,1,.28.053l.138-.4a.935.935,0,0,0-.319-.058ZM4.109,1.958a.657.657,0,0,1,.642-.719.65.65,0,0,1,.63.719.65.65,0,0,1-.63.719.657.657,0,0,1-.642-.719Zm1.669,0V.9H5.364v.258A.807.807,0,0,0,4.7.844,1.04,1.04,0,0,0,3.678,1.958,1.04,1.04,0,0,0,4.7,3.073a.807.807,0,0,0,.668-.311v.258h.414Zm5.579-.719a.532.532,0,0,1,.543.537H10.788a.558.558,0,0,1,.569-.537Zm.009-.4a1.014,1.014,0,0,0-1.018,1.11A1.03,1.03,0,0,0,11.4,3.073a1.229,1.229,0,0,0,.845-.3l-.22-.315a.964.964,0,0,1-.6.222.611.611,0,0,1-.634-.55h1.539c0-.058.009-.116.009-.178a1,1,0,0,0-.97-1.11Zm2.9,1.114a1.043,1.043,0,0,0,1.082,1.114,1.059,1.059,0,0,0,.742-.253l-.216-.333a.889.889,0,0,1-.539.191.664.664,0,0,1-.638-.719.664.664,0,0,1,.638-.719.889.889,0,0,1,.539.191l.216-.333a1.059,1.059,0,0,0-.742-.253,1.043,1.043,0,0,0-1.082,1.114ZM8.011,1.066A1.507,1.507,0,0,0,7.17.844c-.521,0-.841.253-.841.675,0,.346.233.555.694.621l.211.031c.246.035.379.124.379.244,0,.164-.181.271-.487.271a1.049,1.049,0,0,1-.685-.222L6.231,2.8a1.506,1.506,0,0,0,.892.275c.6,0,.923-.284.923-.688,0-.373-.25-.564-.7-.63l-.211-.031c-.194-.027-.366-.089-.366-.231s.164-.262.41-.262a1.3,1.3,0,0,1,.642.182ZM13.793.844a.633.633,0,0,0-.56.311V.9h-.41V3.019h.414V1.825c0-.351.164-.577.457-.577a.712.712,0,0,1,.28.053l.138-.4a.934.934,0,0,0-.319-.058ZM9.969.9h-.75V.254H8.8V.9H8.365v.386H8.8v1c0,.493.168.786.7.786a1.031,1.031,0,0,0,.561-.164L9.93,2.531a.809.809,0,0,1-.4.12c-.224,0-.315-.142-.315-.355V1.283h.75ZM3.252,3.019V1.683A.763.763,0,0,0,2.458.844a.791.791,0,0,0-.724.377A.752.752,0,0,0,1.053.844a.7.7,0,0,0-.621.311V.9H.018V3.019H.436V1.8a.5.5,0,0,1,.522-.564c.3,0,.466.2.466.559V3.019h.418V1.8a.506.506,0,0,1,.522-.564c.306,0,.47.2.47.559V3.019Z" transform="translate(-0.018 -0.045)"/></g><path class="n" d="M24.746,17.343h7.462V4.793H24.746Z" transform="translate(-15.935 -3.087)"/><path class="l" d="M9.581,7.981a8.055,8.055,0,0,1,2.961-6.275A7.578,7.578,0,0,0,7.751,0,7.868,7.868,0,0,0,0,7.981a7.868,7.868,0,0,0,7.751,7.981,7.578,7.578,0,0,0,4.79-1.706A8.055,8.055,0,0,1,9.581,7.981" transform="translate(0 0)"/><path class="o" d="M68.588,35.827v-.388h-.079l-.09.267-.09-.267H68.25v.388h.055v-.293l.085.252h.057l.085-.253v.293Zm-.5,0V35.5h.1v-.066h-.256V35.5h.1v.322Z" transform="translate(-43.748 -22.822)"/><path class="o" d="M47.765,7.981a7.869,7.869,0,0,1-7.751,7.981,7.577,7.577,0,0,1-4.79-1.706,8.13,8.13,0,0,0,0-12.55A7.577,7.577,0,0,1,40.015,0a7.869,7.869,0,0,1,7.751,7.981" transform="translate(-22.683 0)"/></g></g><g transform="translate(0 0.893)"><rect class="p" width="36.382" height="23.209" rx="2"/><g transform="translate(3.271 6.747)"><path class="q" d="M50.167,1.837a6.1,6.1,0,0,0-2.133-.37c-2.349,0-4.006,1.191-4.02,2.9C44,5.625,45.2,6.33,46.1,6.75c.926.43,1.239.7,1.234,1.089-.007.588-.74.857-1.425.857a4.975,4.975,0,0,1-2.238-.461L43.363,8.1l-.334,1.965a7.476,7.476,0,0,0,2.65.468c2.5,0,4.123-1.176,4.142-3,.008-1-.624-1.758-2-2.385-.832-.407-1.341-.677-1.338-1.089,0-.364.433-.755,1.363-.755a4.365,4.365,0,0,1,1.78.335l.213.1.324-1.9" transform="translate(-28.811 -1.467)"/><path class="q" d="M68.24,1.921H66.4a1.182,1.182,0,0,0-1.244.728l-3.533,8.046h2.5s.407-1.082.5-1.318l3.045,0c.071.307.29,1.315.29,1.315h2.207L68.24,1.921Zm-2.933,5.66c.2-.507.948-2.456.948-2.456-.013.025.2-.507.314-.838l.162.757s.456,2.1.552,2.537Z" transform="translate(-40.786 -1.759)"/><path class="q" d="M15.943,1.914,13.615,7.9l-.249-1.216A6.833,6.833,0,0,0,10.072,3L12.2,10.679l2.517,0,3.745-8.763H15.943" transform="translate(-7.588 -1.755)"/><path class="q" d="M6.961,1.9H3.123l-.029.182A7.882,7.882,0,0,1,8.872,6.676L8.039,2.642A1,1,0,0,0,6.961,1.9" transform="translate(-3.094 -1.747)"/><path class="q" d="M32.167,10.676,33.653,1.9h2.38l-1.49,8.778H32.167" transform="translate(-21.816 -1.744)"/></g></g><g transform="translate(213.618 0.893)"><rect class="c" width="36.382" height="23.209" rx="2" transform="translate(0)"/><g transform="translate(2.49 1.615)"><path class="i" d="M59.2,30.126l-.737,3.185h.256l-.157.657h-.255l-.047.2h-.908l.049-.2H55.558l.145-.606.188,0,.751-3.232.148-.651h.927l-.074.333a1.525,1.525,0,0,1,.459-.24,15.507,15.507,0,0,1,1.572-.084l-.153.642Zm-1.63,0-.185.816a3.743,3.743,0,0,1,.41-.165,2.37,2.37,0,0,1,.374-.057l.139-.594Zm-.285,1.221-.195.845a2.568,2.568,0,0,1,.42-.186,2.883,2.883,0,0,1,.373-.065l.139-.594Zm-.453,1.971h.736l.165-.714h-.738l-.163.714Z" transform="translate(-36.098 -19.079)"/><path class="i" d="M67.259,29.5h.984l.013.368c-.007.06.048.093.16.1h.169l-.15.611H67.9c-.459.036-.635-.168-.622-.391l-.019-.683" transform="translate(-43.633 -19.094)"/><path class="i" d="M65.248,34.659h-.941l.126-.546h1.074l.117-.5H64.563L64.708,33H67.66l-.146.613h-.988l-.118.5H67.4l-.127.546H66.2l-.179.229h.437l.153.689a.38.38,0,0,0,.044.14.522.522,0,0,0,.231.039h.133l-.158.67h-.334a1.65,1.65,0,0,1-.237-.014.664.664,0,0,1-.248-.1.357.357,0,0,1-.193-.233l-.151-.686-.438.677a.781.781,0,0,1-.7.372h-.684l.138-.595h.263a.389.389,0,0,0,.187-.052.338.338,0,0,0,.142-.122l.642-1.015" transform="translate(-41.455 -21.349)"/><path class="i" d="M37.757,33.462h2.493l-.142.6h-1l-.118.509H40l-.148.623H38.834l-.195.828c-.024.094.248.1.346.1l.5-.07-.163.683H38.18a.978.978,0,0,1-.263-.036.314.314,0,0,1-.195-.132.28.28,0,0,1-.075-.267l.261-1.1h-.566l.148-.631h.571l.12-.509h-.567l.144-.6" transform="translate(-24.367 -21.646)"/><path class="i" d="M39.9,29.811h1.023l-.147.628h-1.4l-.144.132c-.059.065-.084.041-.164.083a.975.975,0,0,1-.456.122h-.445l.144-.6h.13a.472.472,0,0,0,.231-.035.492.492,0,0,0,.138-.194l.23-.474h1.016l-.158.343" transform="translate(-24.904 -19.075)"/><path class="i" d="M45.224,29.477H46.1l-.1.444a2.071,2.071,0,0,1,.452-.3,3.788,3.788,0,0,1,.617-.14l1.408-.011-.383,1.617a1.748,1.748,0,0,1-.2.539.584.584,0,0,1-.225.216,1.016,1.016,0,0,1-.322.115c-.091,0-.234.007-.433.008H45.556l-.305,1.277c-.031.128-.042.187-.017.22a.163.163,0,0,0,.133.069l.593-.06-.158.7h-.675c-.211,0-.368,0-.472-.011a.552.552,0,0,1-.292-.058c-.063-.054-.161-.124-.165-.2a2.889,2.889,0,0,1,.056-.344l.969-4.084Zm1.949,1.632H45.749l-.069.288h1.236a1.08,1.08,0,0,1,.183,0l.074-.288Zm-1.365-.262a1.511,1.511,0,0,1,.737-.339c.106-.024.791-.014.791-.014l.077-.344H45.976l-.169.7Z" transform="translate(-28.783 -19.079)"/><path class="i" d="M51.067,36.807l-.055.39a.554.554,0,0,1-.136.288.61.61,0,0,1-.462.167l-.478.019.019.438c0,.124.035.111.056.129a.167.167,0,0,0,.066.041l.154-.007.456-.03-.148.643h-.527a1.8,1.8,0,0,1-.744-.077.27.27,0,0,1-.114-.252l-.073-1.714h.848l.01.355h.2a.256.256,0,0,0,.146-.03.184.184,0,0,0,.053-.091l.06-.269h.669" transform="translate(-31.927 -23.801)"/><path class="i" d="M14.327,12.751c-.032.141-.573,2.664-.575,2.664a1.914,1.914,0,0,1-.487,1.115.917.917,0,0,1-.578.2.54.54,0,0,1-.6-.519l-.008-.115s.11-.681.11-.686.571-2.3.675-2.607a.18.18,0,0,1,.01-.035,6.7,6.7,0,0,1-1.319-.021c-.007.025-.036.169-.036.169l-.581,2.6-.055.218-.091.721a1.037,1.037,0,0,0,.123.531c.264.472,1.023.542,1.449.542a2.793,2.793,0,0,0,1.415-.336,2.105,2.105,0,0,0,.9-1.429l.066-.256s.59-2.392.689-2.7a.342.342,0,0,1,.01-.035,8.6,8.6,0,0,1-1.115-.016" transform="translate(-7.267 -8.306)"/><path class="i" d="M25.145,20.966c-.392-.006-.531-.006-.989.016l-.022-.031c.042-.18.086-.352.126-.531l.055-.239a8.522,8.522,0,0,0,.177-.949c.01-.077.035-.278-.19-.278a.777.777,0,0,0-.3.092c-.051.2-.169.76-.22,1.016-.112.541-.123.6-.172.865l-.033.039c-.407-.006-.545-.006-1.01.016l-.02-.037c.075-.321.154-.642.226-.964a13.311,13.311,0,0,0,.3-1.639l.037-.031a10.4,10.4,0,0,0,1.059-.177l.039.048-.075.279c.085-.053.167-.1.252-.15a1.565,1.565,0,0,1,.632-.145.53.53,0,0,1,.547.311c.1.224.032.5-.091,1.045l-.06.278c-.13.6-.148.718-.22,1.128l-.047.039" transform="translate(-14.841 -11.775)"/><path class="i" d="M32.38,22.054c-.238,0-.389-.006-.537,0s-.294.007-.513.019l-.013-.019-.012-.018a3.055,3.055,0,0,1,.121-.392,2.721,2.721,0,0,0,.111-.4c.067-.3.111-.513.14-.7s.05-.332.073-.511l.022-.014L31.785,20c.238-.034.386-.057.542-.083s.309-.051.554-.1l.007.023.011.019c-.05.189-.092.379-.139.571s-.087.377-.129.564c-.093.4-.123.552-.146.653s-.024.161-.06.364l-.022.021-.024.018" transform="translate(-20.479 -12.862)"/><path class="i" d="M39.154,19.688c.139-.613.035-.9-.1-1.071a1.151,1.151,0,0,0-.944-.349,1.719,1.719,0,0,0-1.178.413,1.951,1.951,0,0,0-.526,1.032c-.085.373-.184,1.05.427,1.3a1.86,1.86,0,0,0,.635.1,1.643,1.643,0,0,0,1.255-.5,2.181,2.181,0,0,0,.433-.927m-1.026-.046a2.149,2.149,0,0,1-.233.651.378.378,0,0,1-.289.192c-.032,0-.228,0-.233-.293a2.043,2.043,0,0,1,.062-.453c.1-.461.227-.846.537-.846.245,0,.261.286.157.749" transform="translate(-23.722 -11.862)"/><path class="i" d="M65.613,20.4a.53.53,0,0,1-.378.186c-.032,0-.225,0-.23-.286a1.914,1.914,0,0,1,.061-.453c.1-.45.225-.836.539-.836.2,0,.3.2.272.525-.018.072-.028.141-.047.228-.035.139-.074.281-.109.422a.741.741,0,0,1-.109.214m1.561-2.042c-.494.093-.624.107-1.093.173l-.041.035c0,.039-.01.075-.016.113a.629.629,0,0,0-.34-.29,1.288,1.288,0,0,0-1.124.415,1.968,1.968,0,0,0-.529,1.02c-.081.369-.181,1.044.429,1.283a1.189,1.189,0,0,0,.544.1.907.907,0,0,0,.524-.246c-.018.06-.03.116-.045.173l.028.039c.44-.023.577-.023,1.051-.017l.043-.036c.067-.408.136-.809.315-1.6.086-.377.175-.749.267-1.122l-.013-.041" transform="translate(-41.516 -11.917)"/><path class="i" d="M47.093,20.966c-.4-.006-.527-.006-.992.016l-.017-.031c.042-.18.086-.352.126-.531l.056-.239c.081-.38.169-.813.179-.949,0-.077.029-.278-.2-.278a.789.789,0,0,0-.3.092c-.051.2-.165.76-.22,1.016-.109.541-.118.6-.167.865l-.037.039c-.4-.006-.542-.006-1.01.016l-.022-.037c.079-.321.156-.642.227-.964a14.2,14.2,0,0,0,.3-1.639l.037-.031a10.569,10.569,0,0,0,1.059-.177l.038.048-.073.279c.078-.053.163-.1.246-.15a1.577,1.577,0,0,1,.63-.145.532.532,0,0,1,.55.311c.094.224.033.5-.091,1.045l-.062.278c-.128.6-.148.718-.219,1.128l-.047.039" transform="translate(-28.976 -11.775)"/><path class="i" d="M56.8,14.212a1.038,1.038,0,0,1-.533.711,1.658,1.658,0,0,1-.751.118h-.178l.017-.071s.323-1.421.323-1.416l.007-.069.007-.06.13.011s.669.064.683.066a.557.557,0,0,1,.3.71m-.427-1.483-.325.007c-.85.011-1.189.006-1.333-.013-.012.064-.035.175-.035.175s-.3,1.425-.3,1.428-.728,3.029-.763,3.169c.738-.008,1.045-.012,1.171,0,.03-.139.2-.986.2-.986s.146-.622.157-.642a.275.275,0,0,1,.091-.091h.069a3.122,3.122,0,0,0,1.929-.422,2.176,2.176,0,0,0,.818-1.661.924.924,0,0,0-.153-.549c-.286-.406-.862-.412-1.53-.419" transform="translate(-34.845 -8.291)"/><path class="i" d="M33.7,18.089c.258-.179.294-.434.074-.564a.89.89,0,0,0-.872.091c-.264.183-.292.434-.072.567a.884.884,0,0,0,.87-.094" transform="translate(-21.365 -11.334)"/><path class="i" d="M75.029,18.255l-.042-.045c-.484.1-.572.116-1.019.175l-.035.033a.119.119,0,0,1,0,.022l0-.007c-.334.776-.321.607-.591,1.218a.557.557,0,0,1,0-.076l-.068-1.319-.042-.045c-.507.1-.521.116-.988.175l-.038.033a.334.334,0,0,0-.01.052l0,.007c.057.3.044.238.1.713.025.234.062.471.089.706.049.38.075.576.129,1.163-.317.531-.391.731-.694,1.192v0l-.215.34c-.025.041-.047.065-.079.074a.339.339,0,0,1-.141.022h-.163l-.141.622L71.7,23.3a.763.763,0,0,0,.7-.4l.379-.66,2.251-3.988" transform="translate(-46.096 -11.825)"/><path class="r" d="M7.032.275H14.85a1.533,1.533,0,0,1,1.516,2L12.725,18.045a2.655,2.655,0,0,1-2.435,2H2.468a1.532,1.532,0,0,1-1.514-2L4.6,2.277a2.65,2.65,0,0,1,2.437-2" transform="translate(-0.9 -0.275)"/><path class="s" d="M27.171.275h7.818a1.531,1.531,0,0,1,1.513,2L32.864,18.045a2.662,2.662,0,0,1-2.444,2H22.6a1.531,1.531,0,0,1-1.514-2L24.729,2.277a2.657,2.657,0,0,1,2.441-2" transform="translate(-13.867 -0.275)"/><path class="t" d="M51.417.275h7.811a1.533,1.533,0,0,1,1.517,2L57.1,18.045a2.654,2.654,0,0,1-2.438,2H46.846a1.531,1.531,0,0,1-1.516-2L48.97,2.277a2.659,2.659,0,0,1,2.447-2" transform="translate(-29.477 -0.275)"/><path class="i" d="M59.2,31.8l-.737,3.179h.256l-.157.661h-.255l-.047.2h-.908l.049-.2H55.558l.145-.609h.188l.751-3.23.148-.649h.927l-.074.327a1.555,1.555,0,0,1,.459-.24c.232-.063,1.572-.086,1.572-.086l-.153.648Zm-1.63,0-.185.813a3.162,3.162,0,0,1,.41-.164,2.657,2.657,0,0,1,.374-.062l.139-.588Zm-.285,1.221-.195.839a3.093,3.093,0,0,1,.42-.186,3.3,3.3,0,0,1,.373-.064l.139-.589Zm-.453,1.97h.736l.165-.717h-.738l-.163.717Z" transform="translate(-36.098 -20.155)"/><path class="i" d="M67.259,31.16h.984l.013.368c-.007.062.048.091.16.093h.169l-.15.612H67.9c-.459.035-.635-.165-.622-.391l-.019-.682" transform="translate(-43.633 -20.164)"/><path class="i" d="M65.248,36.319h-.941l.126-.543h1.074l.117-.5H64.563l.145-.616H67.66l-.146.616h-.988l-.118.5H67.4l-.127.543H66.2l-.179.232h.437l.153.688a.406.406,0,0,0,.044.141.6.6,0,0,0,.231.034h.133l-.158.673h-.334a2.273,2.273,0,0,1-.237-.012.757.757,0,0,1-.248-.1.359.359,0,0,1-.193-.235l-.151-.683-.438.673a.778.778,0,0,1-.7.374h-.684l.138-.594h.263a.389.389,0,0,0,.187-.057.3.3,0,0,0,.142-.118l.642-1.016" transform="translate(-41.455 -22.419)"/><path class="i" d="M37.757,35.126h2.493l-.142.6h-1l-.118.514H40l-.148.618H38.834l-.195.829c-.024.092.248.109.346.109l.5-.071-.163.679H38.18a1.016,1.016,0,0,1-.263-.031.327.327,0,0,1-.195-.134.283.283,0,0,1-.075-.268l.261-1.1h-.566l.148-.628h.571l.12-.514h-.567l.144-.6" transform="translate(-24.367 -22.718)"/><path class="i" d="M39.9,31.481h1.023l-.147.624h-1.4l-.144.135c-.059.063-.084.037-.164.08a.922.922,0,0,1-.456.121h-.445l.144-.6h.13a.476.476,0,0,0,.231-.039.465.465,0,0,0,.138-.194l.23-.468h1.016l-.158.342" transform="translate(-24.904 -20.151)"/><path class="i" d="M45.224,31.146H46.1l-.1.445a1.992,1.992,0,0,1,.452-.3,3.879,3.879,0,0,1,.617-.139l1.408-.007-.383,1.612a1.616,1.616,0,0,1-.2.536.56.56,0,0,1-.225.221.813.813,0,0,1-.322.111c-.091.011-.234.011-.433.012H45.556l-.305,1.277c-.031.128-.042.187-.017.222a.171.171,0,0,0,.133.063l.593-.058-.158.7h-.675c-.211,0-.368-.006-.472-.014a.552.552,0,0,1-.292-.058c-.063-.058-.161-.127-.165-.2a2.859,2.859,0,0,1,.056-.34l.969-4.087Zm1.949,1.632H45.749l-.069.288h1.236a1.23,1.23,0,0,1,.183,0l.074-.287Zm-1.365-.261a1.491,1.491,0,0,1,.737-.344c.106-.018.791-.013.791-.013l.077-.345H45.976l-.169.7Z" transform="translate(-28.783 -20.155)"/><path class="i" d="M51.067,38.465l-.055.387a.574.574,0,0,1-.136.294.615.615,0,0,1-.462.163l-.478.019.019.437c0,.129.035.115.056.134a.154.154,0,0,0,.066.037l.154-.007.456-.028-.148.643h-.527a1.7,1.7,0,0,1-.744-.083c-.093-.06-.108-.129-.114-.247L49.08,38.5h.848l.01.35h.2a.276.276,0,0,0,.146-.024.23.23,0,0,0,.053-.089l.06-.274h.669" transform="translate(-31.927 -24.868)"/><path class="i" d="M14.327,14.414c-.032.145-.573,2.666-.575,2.668a1.913,1.913,0,0,1-.487,1.11.892.892,0,0,1-.578.2.539.539,0,0,1-.6-.515l-.008-.118s.11-.679.11-.682.571-2.305.675-2.61a.15.15,0,0,1,.01-.037,7.611,7.611,0,0,1-1.319-.016c-.007.024-.036.17-.036.17l-.581,2.592-.055.221-.091.717a1.06,1.06,0,0,0,.123.537c.264.466,1.023.535,1.449.535a2.844,2.844,0,0,0,1.415-.331,2.12,2.12,0,0,0,.9-1.43l.066-.257s.59-2.392.689-2.7a.232.232,0,0,1,.01-.037,7.388,7.388,0,0,1-1.115-.016" transform="translate(-7.267 -9.38)"/><path class="i" d="M25.145,22.624c-.392-.006-.531-.006-.989.016l-.022-.031c.042-.179.086-.355.126-.531l.055-.239a8.358,8.358,0,0,0,.177-.946c.01-.08.035-.279-.19-.279a.74.74,0,0,0-.3.093c-.051.2-.169.76-.22,1.015-.112.541-.123.6-.172.867l-.033.036c-.407-.006-.545-.006-1.01.016l-.02-.036c.075-.326.154-.643.226-.966a13.335,13.335,0,0,0,.3-1.637l.037-.03c.457-.063.566-.078,1.059-.181l.039.046-.075.28c.085-.048.167-.1.252-.145a1.544,1.544,0,0,1,.632-.15.535.535,0,0,1,.547.311c.1.224.032.5-.091,1.046l-.06.274c-.13.609-.148.722-.22,1.134l-.047.036" transform="translate(-14.841 -12.842)"/><path class="i" d="M32.38,23.72c-.238-.006-.389-.006-.537,0s-.294,0-.513.016l-.013-.022L31.3,23.7a3.081,3.081,0,0,1,.121-.391,2.737,2.737,0,0,0,.111-.4c.067-.3.111-.519.14-.7s.05-.333.073-.509l.022-.016.014-.018c.238-.029.386-.052.542-.08s.309-.049.554-.1l.007.018.011.021c-.05.189-.092.378-.139.568s-.087.379-.129.566c-.093.4-.123.55-.146.655s-.024.154-.06.363L32.4,23.7l-.024.016" transform="translate(-20.479 -13.938)"/><path class="i" d="M39.154,21.342c.139-.613.035-.9-.1-1.069a1.15,1.15,0,0,0-.944-.354,1.707,1.707,0,0,0-1.178.419,1.946,1.946,0,0,0-.526,1.027c-.085.374-.184,1.052.427,1.3a1.81,1.81,0,0,0,.635.107,1.642,1.642,0,0,0,1.255-.5,2.177,2.177,0,0,0,.433-.926M38.127,21.3a2.195,2.195,0,0,1-.233.648.382.382,0,0,1-.289.188c-.032,0-.228,0-.233-.288a2.015,2.015,0,0,1,.062-.453c.1-.456.227-.845.537-.845.245,0,.261.281.157.749" transform="translate(-23.722 -12.925)"/><path class="i" d="M65.613,22.052a.532.532,0,0,1-.378.187c-.032,0-.225,0-.23-.285a1.857,1.857,0,0,1,.061-.451c.1-.456.225-.841.539-.841.2,0,.3.2.272.526-.018.072-.028.14-.047.224-.035.144-.074.284-.109.424a.712.712,0,0,1-.109.216m1.561-2.044c-.494.091-.624.115-1.093.179l-.041.028c0,.04-.01.076-.016.117a.653.653,0,0,0-.34-.292,1.3,1.3,0,0,0-1.124.416,1.957,1.957,0,0,0-.529,1.022c-.081.366-.181,1.042.429,1.281a1.174,1.174,0,0,0,.544.1.866.866,0,0,0,.524-.247c-.018.058-.03.117-.045.176l.028.034c.44-.018.577-.018,1.051-.012l.043-.037c.067-.409.136-.811.315-1.6.086-.374.175-.747.267-1.121l-.013-.041" transform="translate(-41.516 -12.982)"/><path class="i" d="M47.093,22.624c-.4-.006-.527-.006-.992.016l-.017-.031c.042-.179.086-.355.126-.531l.056-.239c.081-.377.169-.811.179-.946,0-.08.029-.279-.2-.279a.751.751,0,0,0-.3.093c-.051.2-.165.76-.22,1.015-.109.541-.118.6-.167.867l-.037.036c-.4-.006-.542-.006-1.01.016L44.5,22.6c.079-.326.156-.643.227-.966a14.235,14.235,0,0,0,.3-1.637l.037-.03c.456-.063.563-.078,1.059-.181l.038.046-.073.28c.078-.048.163-.1.246-.145a1.555,1.555,0,0,1,.63-.15.537.537,0,0,1,.55.311c.094.224.033.5-.091,1.046l-.062.274c-.128.609-.148.722-.219,1.134l-.047.036" transform="translate(-28.976 -12.842)"/><path class="i" d="M56.8,15.875a1.048,1.048,0,0,1-.533.711,1.675,1.675,0,0,1-.751.117h-.178l.017-.071s.323-1.419.323-1.417l.007-.072.007-.054.13.008s.669.06.683.065a.561.561,0,0,1,.3.713M56.37,14.39l-.325.007a12.979,12.979,0,0,1-1.333-.013c-.012.064-.035.175-.035.175l-.3,1.428-.763,3.172c.738-.014,1.045-.014,1.171,0,.03-.142.2-.987.2-.992s.146-.62.157-.636a.3.3,0,0,1,.091-.094h.069a3.122,3.122,0,0,0,1.929-.422A2.087,2.087,0,0,0,58,15.788a2.063,2.063,0,0,0,.051-.431.941.941,0,0,0-.153-.552c-.286-.407-.862-.409-1.53-.416" transform="translate(-34.845 -9.36)"/><path class="i" d="M33.7,19.75c.258-.181.294-.433.074-.568a.9.9,0,0,0-.872.1c-.264.179-.292.433-.072.566a.887.887,0,0,0,.87-.093" transform="translate(-21.365 -12.403)"/><path class="i" d="M75.029,19.919l-.042-.047c-.484.1-.572.116-1.019.176l-.035.029a.148.148,0,0,1,0,.024l0-.006c-.334.775-.321.606-.591,1.217a.593.593,0,0,1,0-.077l-.068-1.316-.042-.047c-.507.1-.521.116-.988.176l-.038.029a.546.546,0,0,0-.01.056l0,.006c.057.3.044.235.1.712.025.232.062.471.089.7.049.386.075.578.129,1.165-.317.535-.391.733-.694,1.2l-.215.346a.175.175,0,0,1-.079.074.361.361,0,0,1-.141.022h-.163l-.141.619.612-.012a.755.755,0,0,0,.7-.4l.379-.658,2.251-3.983" transform="translate(-46.096 -12.895)"/></g></g></g></g></g></svg>